<svg xmlns="http://www.w3.org/2000/svg" xmlns:xlink="http://www.w3.org/1999/xlink" contentStyleType="text/css" data-diagram-type="ACTIVITY" height="1400px" preserveAspectRatio="none" style="width:794px;height:1400px;background:#FFFFFF;" version="1.1" viewBox="0 0 794 1400" width="794px" zoomAndPan="magnify"><title>&#26102;&#38388;&#25139;&#31649;&#29702;&#26426;&#21046;&#21644;&#25991;&#20214;&#22788;&#29702;&#27969;&#31243;&#22270;</title><defs/><g><g class="title" data-source-line="13"><text fill="#000000" font-family="SimHei" font-size="14" font-weight="bold" lengthAdjust="spacing" textLength="210" x="290.7813" y="33.5352">&#26102;&#38388;&#25139;&#31649;&#29702;&#26426;&#21046;&#21644;&#25991;&#20214;&#22788;&#29702;&#27969;&#31243;&#22270;</text></g><ellipse cx="345.5625" cy="57.4883" fill="#222222" rx="10" ry="10" style="stroke:#222222;stroke-width:1;"/><path d="M447.5625,84.2441 L447.5625,104.0879 L427.5625,108.0879 L447.5625,112.0879 L447.5625,131.9316 A0,0 0 0 0 447.5625,131.9316 L661.9844,131.9316 A0,0 0 0 0 661.9844,131.9316 L661.9844,94.2441 L651.9844,84.2441 L447.5625,84.2441 A0,0 0 0 0 447.5625,84.2441" fill="#FEFFDD" style="stroke:#181818;stroke-width:0.5;"/><path d="M651.9844,84.2441 L651.9844,94.2441 L661.9844,94.2441 L651.9844,84.2441" fill="#FEFFDD" style="stroke:#181818;stroke-width:0.5;"/><text fill="#000000" font-family="SimHei" font-size="16" lengthAdjust="spacing" textLength="80" x="453.5625" y="104.7129">&#31934;&#30830;&#21040;&#31186;&#32423;</text><text fill="#000000" font-family="SimHei" font-size="16" lengthAdjust="spacing" textLength="193.4219" x="453.5625" y="123.5566">YYYY-MM-DD HH:MM:SS</text><rect fill="#F1F1F1" height="41.1992" rx="12.5" ry="12.5" style="stroke:#181818;stroke-width:0.5;" width="164" x="263.5625" y="87.4883"/><text fill="#000000" font-family="SimHei" font-size="18" lengthAdjust="spacing" textLength="144" x="273.5625" y="114.8906">&#33719;&#21462;&#24403;&#21069;&#31995;&#32479;&#26102;&#38388;</text><path d="M429.5625,148.6875 L429.5625,168.5313 L409.5625,172.5313 L429.5625,176.5313 L429.5625,196.375 A0,0 0 0 0 429.5625,196.375 L658.8672,196.375 A0,0 0 0 0 658.8672,196.375 L658.8672,158.6875 L648.8672,148.6875 L429.5625,148.6875 A0,0 0 0 0 429.5625,148.6875" fill="#FEFFDD" style="stroke:#181818;stroke-width:0.5;"/><path d="M648.8672,148.6875 L648.8672,158.6875 L658.8672,158.6875 L648.8672,148.6875" fill="#FEFFDD" style="stroke:#181818;stroke-width:0.5;"/><text fill="#000000" font-family="SimHei" font-size="16" lengthAdjust="spacing" textLength="128" x="435.5625" y="169.1563">&#36716;&#25442;&#20026;&#30446;&#24405;&#21517;&#26684;&#24335;</text><text fill="#000000" font-family="SimHei" font-size="16" lengthAdjust="spacing" textLength="208.3047" x="435.5625" y="188">logs_YYYYMMDD_HHMMSS</text><rect fill="#F1F1F1" height="41.1992" rx="12.5" ry="12.5" style="stroke:#181818;stroke-width:0.5;" width="128" x="281.5625" y="151.9316"/><text fill="#000000" font-family="SimHei" font-size="18" lengthAdjust="spacing" textLength="108" x="291.5625" y="179.334">&#26684;&#24335;&#21270;&#26102;&#38388;&#25139;</text><path d="M94.5625,213.1309 L94.5625,260.8184 A0,0 0 0 0 94.5625,260.8184 L243.5625,260.8184 A0,0 0 0 0 243.5625,260.8184 L243.5625,240.9746 L263.5625,236.9746 L243.5625,232.9746 L243.5625,223.1309 L233.5625,213.1309 L94.5625,213.1309 A0,0 0 0 0 94.5625,213.1309" fill="#FEFFDD" style="stroke:#181818;stroke-width:0.5;"/><path d="M233.5625,213.1309 L233.5625,223.1309 L243.5625,223.1309 L233.5625,213.1309" fill="#FEFFDD" style="stroke:#181818;stroke-width:0.5;"/><text fill="#000000" font-family="SimHei" font-size="16" lengthAdjust="spacing" textLength="112" x="100.5625" y="233.5996">&#22312;&#39033;&#30446;&#26681;&#30446;&#24405;&#19979;</text><text fill="#000000" font-family="SimHei" font-size="16" lengthAdjust="spacing" textLength="128" x="100.5625" y="252.4434">&#21019;&#24314;&#25191;&#34892;&#35760;&#24405;&#30446;&#24405;</text><rect fill="#F1F1F1" height="41.1992" rx="12.5" ry="12.5" style="stroke:#181818;stroke-width:0.5;" width="164" x="263.5625" y="216.375"/><text fill="#000000" font-family="SimHei" font-size="18" lengthAdjust="spacing" textLength="144" x="273.5625" y="243.7773">&#21019;&#24314;&#26102;&#38388;&#25139;&#26681;&#30446;&#24405;</text><path d="M438.5625,270.8184 L438.5625,300.084 L418.5625,304.084 L438.5625,308.084 L438.5625,337.3496 A0,0 0 0 0 438.5625,337.3496 L588.4063,337.3496 A0,0 0 0 0 588.4063,337.3496 L588.4063,280.8184 L578.4063,270.8184 L438.5625,270.8184 A0,0 0 0 0 438.5625,270.8184" fill="#FEFFDD" style="stroke:#181818;stroke-width:0.5;"/><path d="M578.4063,270.8184 L578.4063,280.8184 L588.4063,280.8184 L578.4063,270.8184" fill="#FEFFDD" style="stroke:#181818;stroke-width:0.5;"/><text fill="#000000" font-family="SimHei" font-size="16" lengthAdjust="spacing" textLength="128.8438" x="444.5625" y="291.2871">backup/&#21407;&#22987;&#22791;&#20221;</text><text fill="#000000" font-family="SimHei" font-size="16" lengthAdjust="spacing" textLength="124.7031" x="444.5625" y="310.1309">results/&#25554;&#26729;&#32467;&#26524;</text><text fill="#000000" font-family="SimHei" font-size="16" lengthAdjust="spacing" textLength="104.9766" x="444.5625" y="328.9746">logs/&#25191;&#34892;&#26085;&#24535;</text><rect fill="#F1F1F1" height="41.1992" rx="12.5" ry="12.5" style="stroke:#181818;stroke-width:0.5;" width="146" x="272.5625" y="283.4844"/><text fill="#000000" font-family="SimHei" font-size="18" lengthAdjust="spacing" textLength="126" x="282.5625" y="310.8867">&#21019;&#24314;&#23376;&#30446;&#24405;&#32467;&#26500;</text><rect fill="none" height="291.6172" style="stroke:#000000;stroke-width:1.5;" width="618.3174" x="11" y="347.3496"/><path d="M117,347.3496 L117,359.1934 L107,369.1934 L11,369.1934" fill="none" style="stroke:#000000;stroke-width:1.5;"/><text fill="#000000" font-family="SimHei" font-size="16" lengthAdjust="spacing" textLength="96" x="14" y="363.8184">&#25991;&#20214;&#22791;&#20221;&#22788;&#29702;</text><path d="M456.5625,385.9492 L456.5625,405.793 L436.5625,409.793 L456.5625,413.793 L456.5625,433.6367 A0,0 0 0 0 456.5625,433.6367 L573.5625,433.6367 A0,0 0 0 0 573.5625,433.6367 L573.5625,395.9492 L563.5625,385.9492 L456.5625,385.9492 A0,0 0 0 0 456.5625,385.9492" fill="#FEFFDD" style="stroke:#181818;stroke-width:0.5;"/><path d="M563.5625,385.9492 L563.5625,395.9492 L573.5625,395.9492 L563.5625,385.9492" fill="#FEFFDD" style="stroke:#181818;stroke-width:0.5;"/><text fill="#000000" font-family="SimHei" font-size="16" lengthAdjust="spacing" textLength="96" x="462.5625" y="406.418">&#33719;&#21462;&#25152;&#26377;&#38656;&#35201;</text><text fill="#000000" font-family="SimHei" font-size="16" lengthAdjust="spacing" textLength="96" x="462.5625" y="425.2617">&#25554;&#26729;&#30340;&#28304;&#25991;&#20214;</text><rect fill="#F1F1F1" height="41.1992" rx="12.5" ry="12.5" style="stroke:#181818;stroke-width:0.5;" width="182" x="254.5625" y="389.1934"/><text fill="#000000" font-family="SimHei" font-size="18" lengthAdjust="spacing" textLength="162" x="264.5625" y="416.5957">&#25195;&#25551;&#24453;&#22788;&#29702;&#25991;&#20214;&#21015;&#34920;</text><path d="M99.3784,450.3926 L99.3784,498.0801 A0,0 0 0 0 99.3784,498.0801 L232.3784,498.0801 A0,0 0 0 0 232.3784,498.0801 L232.3784,478.2363 L252.3784,474.2363 L232.3784,470.2363 L232.3784,460.3926 L222.3784,450.3926 L99.3784,450.3926 A0,0 0 0 0 99.3784,450.3926" fill="#FEFFDD" style="stroke:#181818;stroke-width:0.5;"/><path d="M222.3784,450.3926 L222.3784,460.3926 L232.3784,460.3926 L222.3784,450.3926" fill="#FEFFDD" style="stroke:#181818;stroke-width:0.5;"/><text fill="#000000" font-family="SimHei" font-size="16" lengthAdjust="spacing" textLength="112" x="105.3784" y="470.8613">&#30830;&#20445;&#25991;&#20214;&#23436;&#25972;&#24615;</text><text fill="#000000" font-family="SimHei" font-size="16" lengthAdjust="spacing" textLength="96" x="105.3784" y="489.7051">&#29992;&#20110;&#21518;&#32493;&#39564;&#35777;</text><rect fill="#F1F1F1" height="41.1992" rx="12.5" ry="12.5" style="stroke:#181818;stroke-width:0.5;" width="186.3682" x="252.3784" y="453.6367"/><text fill="#000000" font-family="SimHei" font-size="18" lengthAdjust="spacing" textLength="166.3682" x="262.3784" y="481.0391">&#35745;&#31639;&#25991;&#20214;MD5&#26657;&#39564;&#20540;</text><path d="M470.3174,514.8359 L470.3174,534.6797 L450.3174,538.6797 L470.3174,542.6797 L470.3174,562.5234 A0,0 0 0 0 470.3174,562.5234 L619.3174,562.5234 A0,0 0 0 0 619.3174,562.5234 L619.3174,524.8359 L609.3174,514.8359 L470.3174,514.8359 A0,0 0 0 0 470.3174,514.8359" fill="#FEFFDD" style="stroke:#181818;stroke-width:0.5;"/><path d="M609.3174,514.8359 L609.3174,524.8359 L619.3174,524.8359 L609.3174,514.8359" fill="#FEFFDD" style="stroke:#181818;stroke-width:0.5;"/><text fill="#000000" font-family="SimHei" font-size="16" lengthAdjust="spacing" textLength="128" x="476.3174" y="535.3047">&#20445;&#25345;&#21407;&#22987;&#30446;&#24405;&#32467;&#26500;</text><text fill="#000000" font-family="SimHei" font-size="16" lengthAdjust="spacing" textLength="112" x="476.3174" y="554.1484">&#30830;&#20445;&#36335;&#24452;&#19968;&#33268;&#24615;</text><rect fill="#F1F1F1" height="41.1992" rx="12.5" ry="12.5" style="stroke:#181818;stroke-width:0.5;" width="209.5098" x="240.8076" y="518.0801"/><text fill="#000000" font-family="SimHei" font-size="18" lengthAdjust="spacing" textLength="189.5098" x="250.8076" y="545.4824">&#22797;&#21046;&#25991;&#20214;&#21040;backup&#30446;&#24405;</text><path d="M21,579.2793 L21,626.9668 A0,0 0 0 0 21,626.9668 L243.5625,626.9668 A0,0 0 0 0 243.5625,626.9668 L243.5625,607.123 L263.5625,603.123 L243.5625,599.123 L243.5625,589.2793 L233.5625,579.2793 L21,579.2793 A0,0 0 0 0 21,579.2793" fill="#FEFFDD" style="stroke:#181818;stroke-width:0.5;"/><path d="M233.5625,579.2793 L233.5625,589.2793 L243.5625,589.2793 L233.5625,579.2793" fill="#FEFFDD" style="stroke:#181818;stroke-width:0.5;"/><text fill="#000000" font-family="SimHei" font-size="16" lengthAdjust="spacing" textLength="201.5625" x="27" y="599.748">&#29983;&#25104;backup_manifest.json</text><text fill="#000000" font-family="SimHei" font-size="16" lengthAdjust="spacing" textLength="160" x="27" y="618.5918">&#21253;&#21547;&#25991;&#20214;&#36335;&#24452;&#21644;&#26657;&#39564;&#20540;</text><rect fill="#F1F1F1" height="41.1992" rx="12.5" ry="12.5" style="stroke:#181818;stroke-width:0.5;" width="164" x="263.5625" y="582.5234"/><text fill="#000000" font-family="SimHei" font-size="18" lengthAdjust="spacing" textLength="144" x="273.5625" y="609.9258">&#35760;&#24405;&#22791;&#20221;&#25991;&#20214;&#28165;&#21333;</text><rect fill="none" height="227.1738" style="stroke:#000000;stroke-width:1.5;" width="508.3125" x="80.25" y="648.9668"/><path d="M186.25,648.9668 L186.25,660.8105 L176.25,670.8105 L80.25,670.8105" fill="none" style="stroke:#000000;stroke-width:1.5;"/><text fill="#000000" font-family="SimHei" font-size="16" lengthAdjust="spacing" textLength="96" x="83.25" y="665.4355">&#25554;&#26729;&#22788;&#29702;&#38454;&#27573;</text><path d="M429.5625,687.5664 L429.5625,707.4102 L409.5625,711.4102 L429.5625,715.4102 L429.5625,735.2539 A0,0 0 0 0 429.5625,735.2539 L578.5625,735.2539 A0,0 0 0 0 578.5625,735.2539 L578.5625,697.5664 L568.5625,687.5664 L429.5625,687.5664 A0,0 0 0 0 429.5625,687.5664" fill="#FEFFDD" style="stroke:#181818;stroke-width:0.5;"/><path d="M568.5625,687.5664 L568.5625,697.5664 L578.5625,697.5664 L568.5625,687.5664" fill="#FEFFDD" style="stroke:#181818;stroke-width:0.5;"/><text fill="#000000" font-family="SimHei" font-size="16" lengthAdjust="spacing" textLength="128" x="435.5625" y="708.0352">&#35843;&#29992;&#26680;&#24515;&#25554;&#26729;&#24341;&#25806;</text><text fill="#000000" font-family="SimHei" font-size="16" lengthAdjust="spacing" textLength="128" x="435.5625" y="726.8789">&#22788;&#29702;&#25152;&#26377;&#30446;&#26631;&#25991;&#20214;</text><rect fill="#F1F1F1" height="41.1992" rx="12.5" ry="12.5" style="stroke:#181818;stroke-width:0.5;" width="128" x="281.5625" y="690.8105"/><text fill="#000000" font-family="SimHei" font-size="18" lengthAdjust="spacing" textLength="108" x="291.5625" y="718.2129">&#25191;&#34892;&#25554;&#26729;&#25805;&#20316;</text><path d="M90.25,752.0098 L90.25,799.6973 A0,0 0 0 0 90.25,799.6973 L243.5625,799.6973 A0,0 0 0 0 243.5625,799.6973 L243.5625,779.8535 L263.5625,775.8535 L243.5625,771.8535 L243.5625,762.0098 L233.5625,752.0098 L90.25,752.0098 A0,0 0 0 0 90.25,752.0098" fill="#FEFFDD" style="stroke:#181818;stroke-width:0.5;"/><path d="M233.5625,752.0098 L233.5625,762.0098 L243.5625,762.0098 L233.5625,752.0098" fill="#FEFFDD" style="stroke:#181818;stroke-width:0.5;"/><text fill="#000000" font-family="SimHei" font-size="16" lengthAdjust="spacing" textLength="132.3125" x="96.25" y="772.4785">&#20445;&#23384;&#21040;results&#30446;&#24405;</text><text fill="#000000" font-family="SimHei" font-size="16" lengthAdjust="spacing" textLength="128" x="96.25" y="791.3223">&#32500;&#25252;&#30456;&#21516;&#30446;&#24405;&#32467;&#26500;</text><rect fill="#F1F1F1" height="41.1992" rx="12.5" ry="12.5" style="stroke:#181818;stroke-width:0.5;" width="164" x="263.5625" y="755.2539"/><text fill="#000000" font-family="SimHei" font-size="18" lengthAdjust="spacing" textLength="144" x="273.5625" y="782.6563">&#29983;&#25104;&#25554;&#26729;&#32467;&#26524;&#25991;&#20214;</text><path d="M429.5625,816.4531 L429.5625,836.2969 L409.5625,840.2969 L429.5625,844.2969 L429.5625,864.1406 A0,0 0 0 0 429.5625,864.1406 L578.5625,864.1406 A0,0 0 0 0 578.5625,864.1406 L578.5625,826.4531 L568.5625,816.4531 L429.5625,816.4531 A0,0 0 0 0 429.5625,816.4531" fill="#FEFFDD" style="stroke:#181818;stroke-width:0.5;"/><path d="M568.5625,816.4531 L568.5625,826.4531 L578.5625,826.4531 L568.5625,816.4531" fill="#FEFFDD" style="stroke:#181818;stroke-width:0.5;"/><text fill="#000000" font-family="SimHei" font-size="16" lengthAdjust="spacing" textLength="112" x="435.5625" y="836.9219">&#35814;&#32454;&#30340;&#25805;&#20316;&#35760;&#24405;</text><text fill="#000000" font-family="SimHei" font-size="16" lengthAdjust="spacing" textLength="128" x="435.5625" y="855.7656">&#21253;&#21547;&#26102;&#38388;&#25139;&#21644;&#29366;&#24577;</text><rect fill="#F1F1F1" height="41.1992" rx="12.5" ry="12.5" style="stroke:#181818;stroke-width:0.5;" width="128" x="281.5625" y="819.6973"/><text fill="#000000" font-family="SimHei" font-size="18" lengthAdjust="spacing" textLength="108" x="291.5625" y="847.0996">&#35760;&#24405;&#22788;&#29702;&#26085;&#24535;</text><rect fill="none" height="227.1738" style="stroke:#000000;stroke-width:1.5;" width="599.4063" x="21.1563" y="886.1406"/><path d="M95.1563,886.1406 L95.1563,897.9844 L85.1563,907.9844 L21.1563,907.9844" fill="none" style="stroke:#000000;stroke-width:1.5;"/><text fill="#000000" font-family="SimHei" font-size="16" lengthAdjust="spacing" textLength="64" x="24.1563" y="902.6094">&#32467;&#26524;&#31649;&#29702;</text><path d="M94.5625,924.7402 L94.5625,972.4277 A0,0 0 0 0 94.5625,972.4277 L243.5625,972.4277 A0,0 0 0 0 243.5625,972.4277 L243.5625,952.584 L263.5625,948.584 L243.5625,944.584 L243.5625,934.7402 L233.5625,924.7402 L94.5625,924.7402 A0,0 0 0 0 94.5625,924.7402" fill="#FEFFDD" style="stroke:#181818;stroke-width:0.5;"/><path d="M233.5625,924.7402 L233.5625,934.7402 L243.5625,934.7402 L233.5625,924.7402" fill="#FEFFDD" style="stroke:#181818;stroke-width:0.5;"/><text fill="#000000" font-family="SimHei" font-size="16" lengthAdjust="spacing" textLength="128" x="100.5625" y="945.209">&#32479;&#35745;&#22788;&#29702;&#25991;&#20214;&#25968;&#37327;</text><text fill="#000000" font-family="SimHei" font-size="16" lengthAdjust="spacing" textLength="128" x="100.5625" y="964.0527">&#25554;&#26729;&#28857;&#25968;&#37327;&#31561;&#20449;&#24687;</text><rect fill="#F1F1F1" height="41.1992" rx="12.5" ry="12.5" style="stroke:#181818;stroke-width:0.5;" width="164" x="263.5625" y="927.9844"/><text fill="#000000" font-family="SimHei" font-size="18" lengthAdjust="spacing" textLength="144" x="273.5625" y="955.3867">&#29983;&#25104;&#25191;&#34892;&#25688;&#35201;&#25253;&#21578;</text><path d="M429.5625,989.1836 L429.5625,1009.0273 L409.5625,1013.0273 L429.5625,1017.0273 L429.5625,1036.8711 A0,0 0 0 0 429.5625,1036.8711 L610.5625,1036.8711 A0,0 0 0 0 610.5625,1036.8711 L610.5625,999.1836 L600.5625,989.1836 L429.5625,989.1836 A0,0 0 0 0 429.5625,989.1836" fill="#FEFFDD" style="stroke:#181818;stroke-width:0.5;"/><path d="M600.5625,989.1836 L600.5625,999.1836 L610.5625,999.1836 L600.5625,989.1836" fill="#FEFFDD" style="stroke:#181818;stroke-width:0.5;"/><text fill="#000000" font-family="SimHei" font-size="16" lengthAdjust="spacing" textLength="142.0391" x="435.5625" y="1009.6523">&#33258;&#21160;&#29983;&#25104;restore.sh</text><text fill="#000000" font-family="SimHei" font-size="16" lengthAdjust="spacing" textLength="160" x="435.5625" y="1028.4961">&#25903;&#25345;&#19968;&#38190;&#24674;&#22797;&#21407;&#22987;&#29366;&#24577;</text><rect fill="#F1F1F1" height="41.1992" rx="12.5" ry="12.5" style="stroke:#181818;stroke-width:0.5;" width="128" x="281.5625" y="992.4277"/><text fill="#000000" font-family="SimHei" font-size="18" lengthAdjust="spacing" textLength="108" x="291.5625" y="1019.8301">&#21019;&#24314;&#24674;&#22797;&#33050;&#26412;</text><path d="M31.1563,1053.627 L31.1563,1101.3145 A0,0 0 0 0 31.1563,1101.3145 L243.5625,1101.3145 A0,0 0 0 0 243.5625,1101.3145 L243.5625,1081.4707 L263.5625,1077.4707 L243.5625,1073.4707 L243.5625,1063.627 L233.5625,1053.627 L31.1563,1053.627 A0,0 0 0 0 31.1563,1053.627" fill="#FEFFDD" style="stroke:#181818;stroke-width:0.5;"/><path d="M233.5625,1053.627 L233.5625,1063.627 L243.5625,1063.627 L233.5625,1053.627" fill="#FEFFDD" style="stroke:#181818;stroke-width:0.5;"/><text fill="#000000" font-family="SimHei" font-size="16" lengthAdjust="spacing" textLength="191.4063" x="37.1563" y="1074.0957">&#22312;execution_history.json</text><text fill="#000000" font-family="SimHei" font-size="16" lengthAdjust="spacing" textLength="144" x="37.1563" y="1092.9395">&#20013;&#35760;&#24405;&#26412;&#27425;&#25191;&#34892;&#20449;&#24687;</text><rect fill="#F1F1F1" height="41.1992" rx="12.5" ry="12.5" style="stroke:#181818;stroke-width:0.5;" width="164" x="263.5625" y="1056.8711"/><text fill="#000000" font-family="SimHei" font-size="18" lengthAdjust="spacing" textLength="144" x="273.5625" y="1084.2734">&#26356;&#26032;&#20840;&#23616;&#25191;&#34892;&#21382;&#21490;</text><path d="M438.5625,1130.0703 L438.5625,1149.9141 L418.5625,1153.9141 L438.5625,1157.9141 L438.5625,1177.7578 A0,0 0 0 0 438.5625,1177.7578 L587.5625,1177.7578 A0,0 0 0 0 587.5625,1177.7578 L587.5625,1140.0703 L577.5625,1130.0703 L438.5625,1130.0703 A0,0 0 0 0 438.5625,1130.0703" fill="#FEFFDD" style="stroke:#181818;stroke-width:0.5;"/><path d="M577.5625,1130.0703 L577.5625,1140.0703 L587.5625,1140.0703 L577.5625,1130.0703" fill="#FEFFDD" style="stroke:#181818;stroke-width:0.5;"/><text fill="#000000" font-family="SimHei" font-size="16" lengthAdjust="spacing" textLength="128" x="444.5625" y="1150.5391">&#26816;&#26597;&#25152;&#26377;&#24517;&#35201;&#25991;&#20214;</text><text fill="#000000" font-family="SimHei" font-size="16" lengthAdjust="spacing" textLength="96" x="444.5625" y="1169.3828">&#26159;&#21542;&#27491;&#30830;&#29983;&#25104;</text><rect fill="#F1F1F1" height="41.1992" rx="12.5" ry="12.5" style="stroke:#181818;stroke-width:0.5;" width="146" x="272.5625" y="1133.3145"/><text fill="#000000" font-family="SimHei" font-size="18" lengthAdjust="spacing" textLength="126" x="282.5625" y="1160.7168">&#39564;&#35777;&#30446;&#24405;&#23436;&#25972;&#24615;</text><polygon fill="#F1F1F1" points="305.7656,1197.7578,385.3594,1197.7578,397.3594,1209.7578,385.3594,1221.7578,305.7656,1221.7578,293.7656,1209.7578,305.7656,1197.7578" style="stroke:#181818;stroke-width:0.5;"/><text fill="#000000" font-family="SimHei" font-size="18" lengthAdjust="spacing" textLength="79.5938" x="305.7656" y="1216.5605">&#39564;&#35777;&#36890;&#36807;?</text><text fill="#000000" font-family="SimHei" font-size="16" lengthAdjust="spacing" textLength="16" x="277.7656" y="1206.3828">&#26159;</text><text fill="#000000" font-family="SimHei" font-size="16" lengthAdjust="spacing" textLength="16" x="397.3594" y="1206.3828">&#21542;</text><path d="M186.5625,1231.7578 L186.5625,1251.6016 L166.5625,1255.6016 L186.5625,1259.6016 L186.5625,1279.4453 A0,0 0 0 0 186.5625,1279.4453 L351.5625,1279.4453 A0,0 0 0 0 351.5625,1279.4453 L351.5625,1241.7578 L341.5625,1231.7578 L186.5625,1231.7578 A0,0 0 0 0 186.5625,1231.7578" fill="#FEFFDD" style="stroke:#181818;stroke-width:0.5;"/><path d="M341.5625,1231.7578 L341.5625,1241.7578 L351.5625,1241.7578 L341.5625,1231.7578" fill="#FEFFDD" style="stroke:#181818;stroke-width:0.5;"/><text fill="#000000" font-family="SimHei" font-size="16" lengthAdjust="spacing" textLength="144" x="192.5625" y="1252.2266">&#26174;&#31034;&#26102;&#38388;&#25139;&#30446;&#24405;&#36335;&#24452;</text><text fill="#000000" font-family="SimHei" font-size="16" lengthAdjust="spacing" textLength="112" x="192.5625" y="1271.0703">&#21644;&#20027;&#35201;&#32479;&#35745;&#20449;&#24687;</text><rect fill="#F1F1F1" height="41.1992" rx="12.5" ry="12.5" style="stroke:#181818;stroke-width:0.5;" width="128" x="38.5625" y="1235.002"/><text fill="#000000" font-family="SimHei" font-size="18" lengthAdjust="spacing" textLength="108" x="48.5625" y="1262.4043">&#36755;&#20986;&#25104;&#21151;&#20449;&#24687;</text><ellipse cx="102.5625" cy="1310.4453" fill="none" rx="11" ry="11" style="stroke:#222222;stroke-width:1;"/><ellipse cx="102.5625" cy="1310.4453" fill="#222222" rx="6" ry="6" style="stroke:#222222;stroke-width:1;"/><path d="M371.5625,1231.7578 L371.5625,1279.4453 A0,0 0 0 0 371.5625,1279.4453 L504.5625,1279.4453 A0,0 0 0 0 504.5625,1279.4453 L504.5625,1259.6016 L524.5625,1255.6016 L504.5625,1251.6016 L504.5625,1241.7578 L494.5625,1231.7578 L371.5625,1231.7578 A0,0 0 0 0 371.5625,1231.7578" fill="#FEFFDD" style="stroke:#181818;stroke-width:0.5;"/><path d="M494.5625,1231.7578 L494.5625,1241.7578 L504.5625,1241.7578 L494.5625,1231.7578" fill="#FEFFDD" style="stroke:#181818;stroke-width:0.5;"/><text fill="#000000" font-family="SimHei" font-size="16" lengthAdjust="spacing" textLength="112" x="377.5625" y="1252.2266">&#35814;&#32454;&#30340;&#38169;&#35823;&#26085;&#24535;</text><text fill="#000000" font-family="SimHei" font-size="16" lengthAdjust="spacing" textLength="96" x="377.5625" y="1271.0703">&#20415;&#20110;&#38382;&#39064;&#36861;&#36394;</text><rect fill="#F1F1F1" height="41.1992" rx="12.5" ry="12.5" style="stroke:#181818;stroke-width:0.5;" width="128" x="524.5625" y="1235.002"/><text fill="#000000" font-family="SimHei" font-size="18" lengthAdjust="spacing" textLength="108" x="534.5625" y="1262.4043">&#35760;&#24405;&#38169;&#35823;&#20449;&#24687;</text><path d="M681.5625,1299.4453 L681.5625,1319.2891 L661.5625,1323.2891 L681.5625,1327.2891 L681.5625,1347.1328 A0,0 0 0 0 681.5625,1347.1328 L782.5625,1347.1328 A0,0 0 0 0 782.5625,1347.1328 L782.5625,1309.4453 L772.5625,1299.4453 L681.5625,1299.4453 A0,0 0 0 0 681.5625,1299.4453" fill="#FEFFDD" style="stroke:#181818;stroke-width:0.5;"/><path d="M772.5625,1299.4453 L772.5625,1309.4453 L782.5625,1309.4453 L772.5625,1299.4453" fill="#FEFFDD" style="stroke:#181818;stroke-width:0.5;"/><text fill="#000000" font-family="SimHei" font-size="16" lengthAdjust="spacing" textLength="80" x="687.5625" y="1319.9141">&#21024;&#38500;&#25439;&#22351;&#30340;</text><text fill="#000000" font-family="SimHei" font-size="16" lengthAdjust="spacing" textLength="80" x="687.5625" y="1338.7578">&#26102;&#38388;&#25139;&#30446;&#24405;</text><rect fill="#F1F1F1" height="41.1992" rx="12.5" ry="12.5" style="stroke:#181818;stroke-width:0.5;" width="146" x="515.5625" y="1302.6895"/><text fill="#000000" font-family="SimHei" font-size="18" lengthAdjust="spacing" textLength="126" x="525.5625" y="1330.0918">&#28165;&#29702;&#19981;&#23436;&#25972;&#30446;&#24405;</text><ellipse cx="588.5625" cy="1378.1328" fill="none" rx="11" ry="11" style="stroke:#222222;stroke-width:1;"/><ellipse cx="588.5625" cy="1378.1328" fill="#222222" rx="6" ry="6" style="stroke:#222222;stroke-width:1;"/><line style="stroke:#181818;stroke-width:1;" x1="345.5625" x2="345.5625" y1="67.4883" y2="87.4883"/><polygon fill="#181818" points="341.5625,77.4883,345.5625,87.4883,349.5625,77.4883,345.5625,81.4883" style="stroke:#181818;stroke-width:1;"/><line style="stroke:#181818;stroke-width:1;" x1="345.5625" x2="345.5625" y1="128.6875" y2="151.9316"/><polygon fill="#181818" points="341.5625,141.9316,345.5625,151.9316,349.5625,141.9316,345.5625,145.9316" style="stroke:#181818;stroke-width:1;"/><line style="stroke:#181818;stroke-width:1;" x1="345.5625" x2="345.5625" y1="193.1309" y2="216.375"/><polygon fill="#181818" points="341.5625,206.375,345.5625,216.375,349.5625,206.375,345.5625,210.375" style="stroke:#181818;stroke-width:1;"/><line style="stroke:#181818;stroke-width:1;" x1="345.5625" x2="345.5625" y1="257.5742" y2="283.4844"/><polygon fill="#181818" points="341.5625,273.4844,345.5625,283.4844,349.5625,273.4844,345.5625,277.4844" style="stroke:#181818;stroke-width:1;"/><line style="stroke:#181818;stroke-width:1;" x1="345.5625" x2="345.5625" y1="430.3926" y2="453.6367"/><polygon fill="#181818" points="341.5625,443.6367,345.5625,453.6367,349.5625,443.6367,345.5625,447.6367" style="stroke:#181818;stroke-width:1;"/><line style="stroke:#181818;stroke-width:1;" x1="345.5625" x2="345.5625" y1="494.8359" y2="518.0801"/><polygon fill="#181818" points="341.5625,508.0801,345.5625,518.0801,349.5625,508.0801,345.5625,512.0801" style="stroke:#181818;stroke-width:1;"/><line style="stroke:#181818;stroke-width:1;" x1="345.5625" x2="345.5625" y1="559.2793" y2="582.5234"/><polygon fill="#181818" points="341.5625,572.5234,345.5625,582.5234,349.5625,572.5234,345.5625,576.5234" style="stroke:#181818;stroke-width:1;"/><line style="stroke:#181818;stroke-width:1;" x1="345.5625" x2="345.5625" y1="324.6836" y2="389.1934"/><polygon fill="#181818" points="341.5625,379.1934,345.5625,389.1934,349.5625,379.1934,345.5625,383.1934" style="stroke:#181818;stroke-width:1;"/><line style="stroke:#181818;stroke-width:1;" x1="345.5625" x2="345.5625" y1="732.0098" y2="755.2539"/><polygon fill="#181818" points="341.5625,745.2539,345.5625,755.2539,349.5625,745.2539,345.5625,749.2539" style="stroke:#181818;stroke-width:1;"/><line style="stroke:#181818;stroke-width:1;" x1="345.5625" x2="345.5625" y1="796.4531" y2="819.6973"/><polygon fill="#181818" points="341.5625,809.6973,345.5625,819.6973,349.5625,809.6973,345.5625,813.6973" style="stroke:#181818;stroke-width:1;"/><line style="stroke:#181818;stroke-width:1;" x1="345.5625" x2="345.5625" y1="623.7227" y2="690.8105"/><polygon fill="#181818" points="341.5625,680.8105,345.5625,690.8105,349.5625,680.8105,345.5625,684.8105" style="stroke:#181818;stroke-width:1;"/><line style="stroke:#181818;stroke-width:1;" x1="345.5625" x2="345.5625" y1="969.1836" y2="992.4277"/><polygon fill="#181818" points="341.5625,982.4277,345.5625,992.4277,349.5625,982.4277,345.5625,986.4277" style="stroke:#181818;stroke-width:1;"/><line style="stroke:#181818;stroke-width:1;" x1="345.5625" x2="345.5625" y1="1033.627" y2="1056.8711"/><polygon fill="#181818" points="341.5625,1046.8711,345.5625,1056.8711,349.5625,1046.8711,345.5625,1050.8711" style="stroke:#181818;stroke-width:1;"/><line style="stroke:#181818;stroke-width:1;" x1="345.5625" x2="345.5625" y1="860.8965" y2="927.9844"/><polygon fill="#181818" points="341.5625,917.9844,345.5625,927.9844,349.5625,917.9844,345.5625,921.9844" style="stroke:#181818;stroke-width:1;"/><line style="stroke:#181818;stroke-width:1;" x1="345.5625" x2="345.5625" y1="1098.0703" y2="1133.3145"/><polygon fill="#181818" points="341.5625,1123.3145,345.5625,1133.3145,349.5625,1123.3145,345.5625,1127.3145" style="stroke:#181818;stroke-width:1;"/><line style="stroke:#181818;stroke-width:1;" x1="102.5625" x2="102.5625" y1="1276.2012" y2="1299.4453"/><polygon fill="#181818" points="98.5625,1289.4453,102.5625,1299.4453,106.5625,1289.4453,102.5625,1293.4453" style="stroke:#181818;stroke-width:1;"/><line style="stroke:#181818;stroke-width:1;" x1="588.5625" x2="588.5625" y1="1276.2012" y2="1302.6895"/><polygon fill="#181818" points="584.5625,1292.6895,588.5625,1302.6895,592.5625,1292.6895,588.5625,1296.6895" style="stroke:#181818;stroke-width:1;"/><line style="stroke:#181818;stroke-width:1;" x1="588.5625" x2="588.5625" y1="1343.8887" y2="1367.1328"/><polygon fill="#181818" points="584.5625,1357.1328,588.5625,1367.1328,592.5625,1357.1328,588.5625,1361.1328" style="stroke:#181818;stroke-width:1;"/><line style="stroke:#181818;stroke-width:1;" x1="293.7656" x2="102.5625" y1="1209.7578" y2="1209.7578"/><line style="stroke:#181818;stroke-width:1;" x1="102.5625" x2="102.5625" y1="1209.7578" y2="1235.002"/><polygon fill="#181818" points="98.5625,1225.002,102.5625,1235.002,106.5625,1225.002,102.5625,1229.002" style="stroke:#181818;stroke-width:1;"/><line style="stroke:#181818;stroke-width:1;" x1="397.3594" x2="588.5625" y1="1209.7578" y2="1209.7578"/><line style="stroke:#181818;stroke-width:1;" x1="588.5625" x2="588.5625" y1="1209.7578" y2="1235.002"/><polygon fill="#181818" points="584.5625,1225.002,588.5625,1235.002,592.5625,1225.002,588.5625,1229.002" style="stroke:#181818;stroke-width:1;"/><line style="stroke:#181818;stroke-width:1;" x1="345.5625" x2="345.5625" y1="1174.5137" y2="1197.7578"/><polygon fill="#181818" points="341.5625,1187.7578,345.5625,1197.7578,349.5625,1187.7578,345.5625,1191.7578" style="stroke:#181818;stroke-width:1;"/><!--SRC=[ZLHDR-9M5DtxLrXP9OkPgAfQLSoYKeMgREWctLH2YcXYWXjY8knKdLQLe0FX8tnDI0AJC0Ko9A6PyD6P3EE107_6zzd-5xtsDGJ8BEgTttltt7FFEU_9EwAqvmlxTlajmU_R3ohVXoHbNVnTuB_ucfC_j_c3RrVWbzR5tJL1N9evujjKn5z5vJd_1yVp3oZVE7_pPN_E58Q5JSKdRGU5_rN9yz-5mbj2-CU0kBaZ2RBCVubed28g2C1AFRDqnvBlzNPTBnomIX-IFJZAiDE4DkX18sOjVeZgpKCu7t6ShFZ22iUvZDn7o9_2i0YfhFv-e0-g1FICaqAAm8V5xO3YulLt8xtUXcHNlpxI-zTUwIVyddWyJznkVctDvV6urjSHZDNkuJuFcTCfcNaOOtZBiXUQsjVFsp0yWKAMAhnICBGjRrYW7e_RlR6svl7OW90yXq5_YiPgdwZIWGqAVaI5IjEiMnlJRKqzz4fERUhQg6UCTXUNQNCA2wq2hUY38lixDa_rPz_cplxUAkIgS7q83THmw9N2Wen9a5TP_eZL_x7BAiHzbVgmqYMCIno7xg8hOaZYboRwMmZamf9jjekbth9y7aPnnniwbomPzUOpt9_JpJQ9fIAiaZ8h4UCgwfKS3cSnrYzGBMUX6kX-kqGB7lTNh5OtRp8GkPz2acRefZP-xVHiPzZ97OkWhVfnK-lde93J1osiCpfH6nGQMGpJX66Nj9auCK_LGir4IRPPTH7RRcbyxC0efgaH8s6rT3XRxf14r8IfSSYUB78-hh9aWPflxFeaqI_8ojDVv924PcVYK7XBnTJ2YlvaUEkMp5fYIqUoc-KUQt-OMcARQ6-pObORLXuvqNs16h6Q2kCN3ipz2Ilca06vQ7jaPp4numfHduqDRIvCYFf0gumAEq4Z0L6wmHrBD_Hp5GgPML7drBFRs_bxHBfpfGyEhAZOCr71LBF9vKB1z7IFHQ8BQX5VUbKSdPnnIAsNPSmZIr_2o_IYOOCgnd4stkoaQoRoq_3-zOaMz5PA6zTPj4DfeuiRlS3O6R4pLhbzD53Y1j9DOe5IAQ6my5GE8Enn1yE7uJAFsrJl197ciYq-lsEdNOWtuTy83G2v0yY_Mw2ERuhmcx2vRqcm4H2j5i-Tg6bgYnH4OkosJY0EVLJEHVV6UU4cLsl-SM5l8gnwILc1STpIpvO79oXte735Mc_mjj1y72Vw-MK2DIDdnZZnxGgl10I9NyR3AtO2HaL8zF4ifAj4P54mLXxfZOTtbCZHFS4S76KqTO0aoAy79t3gFOuJWhB0BoEhbOUqcSUlZ4vdeHSfDmqRdQ54ecgZCRuiPgbjNfIDyT1GRyWEDOxXqDGiAVNvDmMIDVDLWsMhy3gFmAZI_21JheAq9Vgv_m00]--></g></svg>